<svg width="208" height="70" viewBox="0 0 208 70" fill="none" xmlns="http://www.w3.org/2000/svg">
<path d="M39.8945 46.623C39.6016 47.209 39.25 47.7266 38.8398 48.1758C38.4297 48.625 37.9902 48.9961 37.5215 49.2891C37.0527 49.582 36.5742 49.7969 36.0859 49.9336C35.5977 50.0898 35.1387 50.168 34.709 50.168C34.084 50.168 33.5566 50.002 33.127 49.6699C32.6973 49.3574 32.4824 48.8887 32.4824 48.2637C32.4824 48.0488 32.502 47.8145 32.541 47.5605C32.5996 47.2871 32.707 46.9941 32.8633 46.6816C34.3477 43.6152 35.8223 40.666 37.2871 37.834C38.7715 35.002 40.1973 32.3555 41.5645 29.8945C42.9512 27.4336 44.2598 25.1973 45.4902 23.1855C46.7207 21.1543 47.834 19.4258 48.8301 18C49.8457 16.5547 50.7051 15.4414 51.4082 14.6602C52.1309 13.8789 52.6582 13.4883 52.9902 13.4883C53.6738 13.4883 54.1816 13.6836 54.5137 14.0742C54.8457 14.4648 55.0117 14.9238 55.0117 15.4512C55.0117 15.8809 54.9043 16.3105 54.6895 16.7402C54.2012 17.7363 53.6445 18.8691 53.0195 20.1387C52.4141 21.3887 51.7695 22.7266 51.0859 24.1523C50.4023 25.5586 49.6895 27.0234 48.9473 28.5469C48.2051 30.0508 47.4727 31.5547 46.75 33.0586C46.0273 34.543 45.3145 35.9883 44.6113 37.3945C43.9277 38.7812 43.2832 40.0703 42.6777 41.2617C42.0918 42.4531 41.5547 43.5176 41.0664 44.4551C40.5977 45.373 40.207 46.0957 39.8945 46.623ZM74.1426 12.3457C74.1426 12.6973 74.0059 13.1953 73.7324 13.8398C73.4785 14.4648 73.1074 15.0801 72.6191 15.6855C72.1504 16.291 71.5742 16.8184 70.8906 17.2676C70.2266 17.7168 69.4844 17.9414 68.6641 17.9414C68.4688 17.9414 68.2246 17.9316 67.9316 17.9121C67.6387 17.873 67.3457 17.7949 67.0527 17.6777C66.7793 17.5605 66.5449 17.3945 66.3496 17.1797C66.1543 16.9648 66.0566 16.6816 66.0566 16.3301C66.0566 16.1543 66.1445 15.9102 66.3203 15.5977C66.4961 15.2656 66.6816 14.9141 66.877 14.543C67.0918 14.1719 67.2871 13.8105 67.4629 13.459C67.6387 13.1074 67.7266 12.8145 67.7266 12.5801C67.7266 11.916 67.2578 11.4375 66.3203 11.1445C65.3828 10.832 63.8105 10.6758 61.6035 10.6758C59.3965 10.7539 57.4043 10.8906 55.627 11.0859C53.8496 11.2617 52.209 11.4961 50.7051 11.7891C49.2012 12.0625 47.7949 12.3848 46.4863 12.7559C45.1777 13.127 43.8887 13.5273 42.6191 13.957C41.3496 14.3672 40.0605 14.8164 38.752 15.3047C37.4629 15.7734 36.0859 16.252 34.6211 16.7402C34.4844 16.7793 34.3477 16.8184 34.2109 16.8574C34.0938 16.8965 33.9863 16.916 33.8887 16.916C33.5762 16.916 33.293 16.8477 33.0391 16.7109C32.7852 16.5742 32.5605 16.3887 32.3652 16.1543C32.1895 15.9199 32.043 15.6562 31.9258 15.3633C31.8281 15.0703 31.7793 14.7676 31.7793 14.4551C31.7793 13.9473 32.1895 13.3809 33.0098 12.7559C33.8301 12.1113 34.9531 11.4668 36.3789 10.8223C37.8047 10.1777 39.4844 9.55273 41.418 8.94727C43.3516 8.32227 45.4316 7.77539 47.6582 7.30664C49.9043 6.81836 52.2383 6.4375 54.6602 6.16406C57.1016 5.87109 59.5332 5.72461 61.9551 5.72461C64.0449 5.72461 65.8516 5.89063 67.375 6.22266C68.8984 6.55469 70.1582 7.01367 71.1543 7.59961C72.1504 8.18555 72.8926 8.88867 73.3809 9.70898C73.8691 10.5098 74.123 11.3887 74.1426 12.3457ZM67.2129 30.9199C67.9746 30.4512 68.7559 30.0215 69.5566 29.6309C70.377 29.2402 71.168 28.9082 71.9297 28.6348C72.6914 28.3418 73.4141 28.1172 74.0977 27.9609C74.8008 27.7852 75.4258 27.6973 75.9727 27.6973C76.8516 27.6973 77.5254 27.9121 77.9941 28.3418C78.4824 28.752 78.7266 29.4551 78.7266 30.4512C78.7266 30.666 78.7168 30.9004 78.6973 31.1543C78.6777 31.3887 78.6387 31.6426 78.5801 31.916C78.4824 32.4238 78.1895 33.0195 77.7012 33.7031C77.2129 34.3867 76.6367 35.0996 75.9727 35.8418C75.3281 36.584 74.625 37.3359 73.8633 38.0977C73.1211 38.8398 72.4277 39.5332 71.7832 40.1777C71.1582 40.8027 70.6309 41.3496 70.2012 41.8184C69.791 42.2871 69.5859 42.6094 69.5859 42.7852C69.5859 42.9414 69.5957 43.0488 69.6152 43.1074C69.6348 43.166 69.7227 43.1953 69.8789 43.1953C70.9336 42.7461 72.1055 42.209 73.3945 41.584C74.7031 40.9395 76.002 40.2852 77.291 39.6211C78.5801 38.957 79.8008 38.3125 80.9531 37.6875C82.1055 37.043 83.082 36.4863 83.8828 36.0176C84.0586 35.9199 84.2344 35.8418 84.4102 35.7832C84.6055 35.7051 84.7812 35.666 84.9375 35.666C85.2891 35.666 85.582 35.7832 85.8164 36.0176C86.0508 36.252 86.168 36.5645 86.168 36.9551C86.168 37.4043 85.9727 37.9219 85.582 38.5078C85.2109 39.0742 84.5762 39.6699 83.6777 40.2949C82.9941 40.7246 82.2227 41.2129 81.3633 41.7598C80.5234 42.2871 79.6348 42.8438 78.6973 43.4297C77.7793 43.9961 76.8418 44.5527 75.8848 45.0996C74.9473 45.6465 74.0391 46.1348 73.1602 46.5645C72.2812 46.9941 71.4512 47.3457 70.6699 47.6191C69.9082 47.873 69.2441 48 68.6777 48C67.3301 48 66.3145 47.6777 65.6309 47.0332C64.9668 46.3887 64.6348 45.5586 64.6348 44.543C64.6348 44.3867 64.6445 44.2695 64.6641 44.1914C64.8008 43.332 65.0547 42.502 65.4258 41.7012C65.7969 40.9004 66.2168 40.1387 66.6855 39.416C67.1543 38.6934 67.6426 38.0098 68.1504 37.3652C68.6582 36.7012 69.1172 36.0859 69.5273 35.5195C69.957 34.9336 70.3086 34.3965 70.582 33.9082C70.8555 33.4199 70.9922 32.9707 70.9922 32.5605C70.9922 32.4629 70.9727 32.3652 70.9336 32.2676C70.8945 32.1699 70.8066 32.1211 70.6699 32.1211C70.4355 32.1211 70.0449 32.209 69.498 32.3848C68.9707 32.5605 68.4043 32.7949 67.7988 33.0879C67.1934 33.3809 66.6172 33.7227 66.0703 34.1133C65.5234 34.4844 65.1328 34.8848 64.8984 35.3145C64.5859 35.8613 64.2246 36.5547 63.8145 37.3945C63.4043 38.2344 62.9746 39.1133 62.5254 40.0312C62.0957 40.9492 61.6758 41.8574 61.2656 42.7559C60.8555 43.6543 60.5039 44.4258 60.2109 45.0703C59.9766 45.6367 59.6641 46.1445 59.2734 46.5938C58.9023 47.043 58.4922 47.4238 58.043 47.7363C57.5938 48.0488 57.1348 48.293 56.666 48.4688C56.1973 48.6445 55.7676 48.7324 55.377 48.7324C54.9277 48.7324 54.5664 48.6152 54.293 48.3809C54.0391 48.1465 53.9121 47.7656 53.9121 47.2383C53.9121 47.0234 53.9414 46.7598 54 46.4473C54.0781 46.1152 54.2246 45.7539 54.4395 45.3633C54.791 44.6992 55.1426 43.9766 55.4941 43.1953C55.8652 42.4141 56.2852 41.5254 56.7539 40.5293C57.2227 39.5137 57.7598 38.3613 58.3652 37.0723C58.9902 35.7637 59.7227 34.2598 60.5625 32.5605C60.2891 32.3262 60.0547 32.043 59.8594 31.7109C59.6836 31.3594 59.5957 30.9297 59.5957 30.4219C59.5957 29.9531 59.6934 29.5527 59.8887 29.2207C60.084 28.8691 60.3477 28.5859 60.6797 28.3711C61.0117 28.1562 61.3926 28 61.8223 27.9023C62.2715 27.7852 62.7402 27.7266 63.2285 27.7266C63.7363 27.7266 64.2441 27.7754 64.752 27.873C65.2598 27.9512 65.709 28.0781 66.0996 28.2539C66.5098 28.4297 66.8418 28.6445 67.0957 28.8984C67.3496 29.1523 67.4766 29.4453 67.4766 29.7773C67.4766 29.8359 67.457 29.9141 67.418 30.0117C67.3789 30.1094 67.3301 30.2168 67.2715 30.334C67.2324 30.4512 67.1934 30.5586 67.1543 30.6562C67.1152 30.7539 67.0957 30.832 67.0957 30.8906C67.0957 30.9297 67.1055 30.9492 67.125 30.9492H67.1543L67.2129 30.9199ZM88.5254 22.6582C88.5254 22.209 88.6035 21.75 88.7598 21.2812C88.9355 20.793 89.1895 20.3535 89.5215 19.9629C89.8535 19.5723 90.2637 19.25 90.752 18.9961C91.2598 18.7422 91.8555 18.6152 92.5391 18.6152C93.6719 18.6152 94.4629 18.8398 94.9121 19.2891C95.3613 19.7188 95.5859 20.2656 95.5859 20.9297C95.5859 21.3008 95.5078 21.7109 95.3516 22.1602C95.2148 22.6094 95 23.0293 94.707 23.4199C94.4141 23.791 94.0332 24.1035 93.5645 24.3574C93.0957 24.6113 92.5391 24.7383 91.8945 24.7383C90.6836 24.7383 89.834 24.5527 89.3457 24.1816C88.8574 23.791 88.584 23.2832 88.5254 22.6582ZM85.3027 29.25C85.6348 28.7031 86.0156 28.3125 86.4453 28.0781C86.875 27.8438 87.3145 27.7266 87.7637 27.7266C88.5059 27.7266 89.1406 27.9707 89.668 28.459C90.2148 28.9277 90.4883 29.5332 90.4883 30.2754C90.4688 30.4512 90.4395 30.627 90.4004 30.8027C90.3809 30.9785 90.3223 31.1543 90.2246 31.3301C89.9512 31.8379 89.7266 32.2676 89.5508 32.6191C89.375 32.9707 89.209 33.3027 89.0527 33.6152C88.916 33.9082 88.7793 34.2012 88.6426 34.4941C88.5059 34.7871 88.3398 35.1387 88.1445 35.5488C87.9102 36.0371 87.6465 36.5742 87.3535 37.1602C87.0605 37.7266 86.7773 38.3125 86.5039 38.918C86.25 39.5234 86.0254 40.1191 85.8301 40.7051C85.6543 41.291 85.5664 41.8281 85.5664 42.3164C85.5664 42.8438 85.6934 43.1953 85.9473 43.3711C86.2207 43.5273 86.6016 43.6055 87.0898 43.6055C87.6367 43.6055 88.2031 43.4883 88.7891 43.2539C89.3945 43.0195 90 42.7168 90.6055 42.3457C91.2109 41.9746 91.8066 41.5547 92.3926 41.0859C92.9785 40.5977 93.5254 40.1094 94.0332 39.6211C94.5605 39.1328 95.0391 38.6641 95.4688 38.2148C95.918 37.7656 96.2891 37.3652 96.582 37.0137C96.9727 36.6426 97.3633 36.457 97.7539 36.457C98.1055 36.457 98.3887 36.6133 98.6035 36.9258C98.8379 37.2383 98.9551 37.6387 98.9551 38.127C98.9551 38.5762 98.8379 39.0547 98.6035 39.5625C98.3887 40.0703 98.0273 40.5488 97.5195 40.998C96.5234 42.0137 95.5078 42.9902 94.4727 43.9277C93.4375 44.8457 92.373 45.666 91.2793 46.3887C90.2051 47.0918 89.1211 47.6582 88.0273 48.0879C86.9336 48.5176 85.8301 48.7324 84.7168 48.7324C83.1348 48.7324 81.8848 48.332 80.9668 47.5312C80.0684 46.7109 79.6191 45.4414 79.6191 43.7227C79.6191 42.8242 79.7461 41.9453 80 41.0859C80.2539 40.2266 80.5566 39.3965 80.9082 38.5957C81.2598 37.7754 81.6309 36.9941 82.0215 36.252C82.4121 35.4902 82.7441 34.7676 83.0176 34.084C83.1152 33.8301 83.2812 33.4395 83.5156 32.9121C83.7695 32.3848 84.0332 31.8477 84.3066 31.3008C84.6191 30.6562 84.9512 29.9727 85.3027 29.25ZM111.801 29.3965C111.801 30.002 111.732 30.6758 111.596 31.418C111.459 32.1406 111.234 32.8242 110.922 33.4688C110.609 34.1133 110.209 34.6504 109.721 35.0801C109.232 35.5098 108.627 35.7246 107.904 35.7246C107.514 35.7246 107.26 35.666 107.143 35.5488C107.045 35.4316 106.996 35.2266 106.996 34.9336C106.996 34.7578 106.996 34.5039 106.996 34.1719C107.016 33.8203 107.025 33.4883 107.025 33.1758C107.025 32.8242 106.977 32.5312 106.879 32.2969C106.781 32.043 106.537 31.916 106.146 31.916C105.697 31.916 105.189 32.0918 104.623 32.4434C104.076 32.7754 103.52 33.2148 102.953 33.7617C102.406 34.3086 101.869 34.9336 101.342 35.6367C100.814 36.3203 100.336 37.0234 99.9062 37.7461C99.4961 38.4492 99.1641 39.1328 98.9102 39.7969C98.6758 40.4609 98.5586 41.0273 98.5586 41.4961C98.5586 42.1797 98.793 42.7168 99.2617 43.1074C99.75 43.498 100.404 43.6934 101.225 43.6934C102.104 43.6934 103.041 43.5469 104.037 43.2539C105.033 42.9609 106.02 42.5898 106.996 42.1406C107.992 41.6914 108.949 41.2031 109.867 40.6758C110.785 40.1484 111.615 39.6504 112.357 39.1816C113.119 38.6934 113.754 38.2832 114.262 37.9512C114.77 37.5996 115.102 37.3848 115.258 37.3066C115.57 37.1504 115.863 37.0723 116.137 37.0723C116.371 37.0723 116.566 37.1309 116.723 37.248C116.898 37.3457 117.035 37.4727 117.133 37.6289C117.23 37.7656 117.299 37.9219 117.338 38.0977C117.377 38.2539 117.396 38.3906 117.396 38.5078C117.396 38.6836 117.377 38.8984 117.338 39.1523C117.299 39.3867 117.152 39.6602 116.898 39.9727C116.801 40.0898 116.479 40.3926 115.932 40.8809C115.404 41.3496 114.711 41.9062 113.852 42.5508C113.012 43.1953 112.035 43.8887 110.922 44.6309C109.828 45.3535 108.646 46.0176 107.377 46.623C106.127 47.2285 104.828 47.7266 103.48 48.1172C102.133 48.5273 100.805 48.7324 99.4961 48.7324C98.5 48.7324 97.6113 48.5762 96.8301 48.2637C96.0684 47.9512 95.4238 47.5312 94.8965 47.0039C94.3691 46.457 93.9688 45.8223 93.6953 45.0996C93.4219 44.377 93.2852 43.6152 93.2852 42.8145C93.2852 41.9355 93.4902 40.9297 93.9004 39.7969C94.3105 38.6445 94.877 37.4727 95.5996 36.2812C96.3223 35.0898 97.1719 33.918 98.1484 32.7656C99.125 31.6133 100.18 30.5879 101.312 29.6895C102.465 28.791 103.656 28.0684 104.887 27.5215C106.137 26.9746 107.396 26.7012 108.666 26.7012C109.096 26.7012 109.496 26.75 109.867 26.8477C110.258 26.9453 110.59 27.1016 110.863 27.3164C111.156 27.5117 111.381 27.7852 111.537 28.1367C111.713 28.4883 111.801 28.9082 111.801 29.3965ZM121.863 33C122.605 32.2383 123.387 31.4863 124.207 30.7441C125.047 29.9824 125.916 29.3086 126.814 28.7227C127.732 28.1172 128.689 27.6289 129.686 27.2578C130.682 26.8867 131.727 26.7012 132.82 26.7012C133.465 26.7012 134.129 26.7793 134.812 26.9355C135.496 27.0723 136.111 27.3066 136.658 27.6387C137.225 27.9707 137.684 28.4004 138.035 28.9277C138.387 29.4551 138.562 30.0996 138.562 30.8613C138.562 32.1113 138.27 33.2441 137.684 34.2598C137.117 35.2754 136.375 36.1836 135.457 36.9844C134.539 37.7852 133.514 38.498 132.381 39.123C131.268 39.7285 130.174 40.2461 129.1 40.6758C128.826 40.793 128.572 40.9492 128.338 41.1445C128.104 41.3203 127.898 41.5156 127.723 41.7305C127.566 41.9258 127.439 42.1309 127.342 42.3457C127.244 42.541 127.195 42.707 127.195 42.8438C127.195 43.0781 127.264 43.2832 127.4 43.459C127.557 43.6152 127.82 43.6934 128.191 43.6934C128.914 43.6934 129.734 43.5469 130.652 43.2539C131.57 42.9609 132.635 42.5215 133.846 41.9355C135.076 41.3301 136.473 40.5684 138.035 39.6504C139.617 38.7324 141.434 37.6484 143.484 36.3984C143.816 36.2031 144.129 36.1055 144.422 36.1055C144.793 36.1055 145.086 36.2422 145.301 36.5156C145.516 36.7891 145.623 37.1504 145.623 37.5996C145.623 38.1465 145.418 38.7715 145.008 39.4746C144.617 40.1582 143.953 40.8125 143.016 41.4375C141.707 42.2383 140.369 43.0684 139.002 43.9277C137.635 44.7871 136.229 45.5781 134.783 46.3008C133.338 47.0039 131.854 47.5801 130.33 48.0293C128.807 48.498 127.244 48.7324 125.643 48.7324C122.869 48.7324 121.482 47.5312 121.482 45.1289C121.482 43.8594 121.746 42.7461 122.273 41.7891C122.82 40.8125 123.475 39.9629 124.236 39.2402C125.018 38.5176 125.828 37.9023 126.668 37.3945C127.508 36.8672 128.23 36.3984 128.836 35.9883C129.305 35.7148 129.744 35.4219 130.154 35.1094C130.564 34.7969 130.926 34.4746 131.238 34.1426C131.57 33.8105 131.824 33.4785 132 33.1465C132.195 32.7949 132.293 32.4434 132.293 32.0918C132.293 31.5254 132.029 31.2422 131.502 31.2422C129.549 31.2422 126.814 33.127 123.299 36.8965C122.498 37.7559 121.766 38.5957 121.102 39.416C120.438 40.2168 119.812 41.0078 119.227 41.7891C118.66 42.5703 118.113 43.332 117.586 44.0742C117.059 44.7969 116.541 45.4902 116.033 46.1543C114.51 47.873 113.152 48.7324 111.961 48.7324C111.395 48.7324 110.984 48.625 110.73 48.4102C110.477 48.2148 110.35 47.834 110.35 47.2676C110.35 47.1895 110.35 47.1113 110.35 47.0332C110.35 46.9551 110.359 46.8672 110.379 46.7695C110.418 46.3789 110.584 45.7832 110.877 44.9824C111.17 44.1816 111.531 43.2734 111.961 42.2578C112.41 41.2422 112.898 40.1582 113.426 39.0059C113.973 37.8535 114.51 36.7305 115.037 35.6367C115.564 34.5234 116.062 33.4883 116.531 32.5312C117 31.5547 117.391 30.7441 117.703 30.0996L126.961 11.2031C127.078 10.9492 127.254 10.7051 127.488 10.4707C127.742 10.2363 128.016 10.0312 128.309 9.85547C128.621 9.66016 128.943 9.51367 129.275 9.41602C129.627 9.29883 129.979 9.24023 130.33 9.24023C131.209 9.24023 131.814 9.40625 132.146 9.73828C132.498 10.0703 132.674 10.4707 132.674 10.9395C132.674 11.3691 132.566 11.8184 132.352 12.2871C132.156 12.7559 131.922 13.1953 131.648 13.6055C130.828 15.0703 130.008 16.6328 129.188 18.293C128.387 19.9336 127.586 21.6035 126.785 23.3027C125.984 25.002 125.174 26.6816 124.354 28.3418C123.533 29.9824 122.703 31.5352 121.863 33ZM153.928 30.7148C153.83 30.6953 153.742 30.6855 153.664 30.6855C153.586 30.6855 153.498 30.6855 153.4 30.6855C152.658 30.6855 151.965 30.832 151.32 31.125C150.676 31.418 150.08 31.8086 149.533 32.2969C149.006 32.7656 148.527 33.3027 148.098 33.9082C147.688 34.5137 147.316 35.1191 146.984 35.7246C146.652 36.3105 146.369 36.877 146.135 37.4238C145.92 37.9707 145.754 38.4297 145.637 38.8008C146.32 38.4492 147.023 38.0488 147.746 37.5996C148.488 37.1504 149.182 36.7207 149.826 36.3105C150.471 35.9004 151.027 35.5293 151.496 35.1973C151.984 34.8652 152.326 34.6406 152.521 34.5234C153.4 33.9766 154.006 33.4688 154.338 33C154.67 32.5117 154.836 32.0918 154.836 31.7402C154.836 31.4473 154.738 31.2129 154.543 31.0371C154.367 30.8613 154.162 30.7539 153.928 30.7148ZM154.982 26.6719C156.604 26.6719 157.814 27.0625 158.615 27.8438C159.416 28.625 159.816 29.709 159.816 31.0957C159.816 31.916 159.602 32.7754 159.172 33.6738C158.742 34.5723 158 35.4902 156.945 36.4277C155.891 37.3457 154.475 38.293 152.697 39.2695C150.939 40.2266 148.732 41.1934 146.076 42.1699C146.174 42.7363 146.477 43.1855 146.984 43.5176C147.492 43.8301 148.166 43.9863 149.006 43.9863C149.904 43.9863 150.861 43.8594 151.877 43.6055C152.912 43.332 153.928 42.9902 154.924 42.5801C155.939 42.1699 156.926 41.7305 157.883 41.2617C158.84 40.7734 159.699 40.3145 160.461 39.8848C161.242 39.4551 161.887 39.084 162.395 38.7715C162.922 38.459 163.273 38.2637 163.449 38.1855C163.625 38.0684 163.781 38 163.918 37.9805C164.074 37.9609 164.211 37.9512 164.328 37.9512C164.562 37.9512 164.758 38.0098 164.914 38.127C165.07 38.2246 165.197 38.3516 165.295 38.5078C165.412 38.6445 165.49 38.8008 165.529 38.9766C165.568 39.1328 165.588 39.2695 165.588 39.3867C165.588 39.5625 165.568 39.7773 165.529 40.0312C165.49 40.2656 165.344 40.5391 165.09 40.8516C164.992 40.9492 164.66 41.2129 164.094 41.6426C163.547 42.0723 162.834 42.5801 161.955 43.166C161.076 43.752 160.051 44.377 158.879 45.041C157.727 45.6855 156.496 46.2812 155.188 46.8281C153.898 47.375 152.551 47.8242 151.145 48.1758C149.738 48.5469 148.352 48.7324 146.984 48.7324C145.812 48.7324 144.768 48.5078 143.85 48.0586C142.951 47.6094 142.18 47.0039 141.535 46.2422C140.91 45.4805 140.432 44.6016 140.1 43.6055C139.768 42.6094 139.602 41.5645 139.602 40.4707C139.602 39.6309 139.768 38.7129 140.1 37.7168C140.432 36.7012 140.91 35.6855 141.535 34.6699C142.16 33.6543 142.922 32.668 143.82 31.7109C144.738 30.7344 145.764 29.875 146.896 29.1328C148.029 28.3906 149.27 27.7949 150.617 27.3457C151.984 26.8965 153.439 26.6719 154.982 26.6719ZM172.428 30.9199C173.189 30.4512 173.971 30.0215 174.771 29.6309C175.592 29.2402 176.383 28.9082 177.145 28.6348C177.906 28.3418 178.629 28.1172 179.312 27.9609C180.016 27.7852 180.641 27.6973 181.188 27.6973C182.066 27.6973 182.74 27.9121 183.209 28.3418C183.697 28.752 183.941 29.4551 183.941 30.4512C183.941 30.666 183.932 30.9004 183.912 31.1543C183.893 31.3887 183.854 31.6426 183.795 31.916C183.697 32.4238 183.404 33.0195 182.916 33.7031C182.428 34.3867 181.852 35.0996 181.188 35.8418C180.543 36.584 179.84 37.3359 179.078 38.0977C178.336 38.8398 177.643 39.5332 176.998 40.1777C176.373 40.8027 175.846 41.3496 175.416 41.8184C175.006 42.2871 174.801 42.6094 174.801 42.7852C174.801 42.9414 174.811 43.0488 174.83 43.1074C174.85 43.166 174.938 43.1953 175.094 43.1953C176.148 42.7461 177.32 42.209 178.609 41.584C179.918 40.9395 181.217 40.2852 182.506 39.6211C183.795 38.957 185.016 38.3125 186.168 37.6875C187.32 37.043 188.297 36.4863 189.098 36.0176C189.273 35.9199 189.449 35.8418 189.625 35.7832C189.82 35.7051 189.996 35.666 190.152 35.666C190.504 35.666 190.797 35.7832 191.031 36.0176C191.266 36.252 191.383 36.5645 191.383 36.9551C191.383 37.4043 191.188 37.9219 190.797 38.5078C190.426 39.0742 189.791 39.6699 188.893 40.2949C188.209 40.7246 187.438 41.2129 186.578 41.7598C185.738 42.2871 184.85 42.8438 183.912 43.4297C182.994 43.9961 182.057 44.5527 181.1 45.0996C180.162 45.6465 179.254 46.1348 178.375 46.5645C177.496 46.9941 176.666 47.3457 175.885 47.6191C175.123 47.873 174.459 48 173.893 48C172.545 48 171.529 47.6777 170.846 47.0332C170.182 46.3887 169.85 45.5586 169.85 44.543C169.85 44.3867 169.859 44.2695 169.879 44.1914C170.016 43.332 170.27 42.502 170.641 41.7012C171.012 40.9004 171.432 40.1387 171.9 39.416C172.369 38.6934 172.857 38.0098 173.365 37.3652C173.873 36.7012 174.332 36.0859 174.742 35.5195C175.172 34.9336 175.523 34.3965 175.797 33.9082C176.07 33.4199 176.207 32.9707 176.207 32.5605C176.207 32.4629 176.188 32.3652 176.148 32.2676C176.109 32.1699 176.021 32.1211 175.885 32.1211C175.65 32.1211 175.26 32.209 174.713 32.3848C174.186 32.5605 173.619 32.7949 173.014 33.0879C172.408 33.3809 171.832 33.7227 171.285 34.1133C170.738 34.4844 170.348 34.8848 170.113 35.3145C169.801 35.8613 169.439 36.5547 169.029 37.3945C168.619 38.2344 168.189 39.1133 167.74 40.0312C167.311 40.9492 166.891 41.8574 166.48 42.7559C166.07 43.6543 165.719 44.4258 165.426 45.0703C165.191 45.6367 164.879 46.1445 164.488 46.5938C164.117 47.043 163.707 47.4238 163.258 47.7363C162.809 48.0488 162.35 48.293 161.881 48.4688C161.412 48.6445 160.982 48.7324 160.592 48.7324C160.143 48.7324 159.781 48.6152 159.508 48.3809C159.254 48.1465 159.127 47.7656 159.127 47.2383C159.127 47.0234 159.156 46.7598 159.215 46.4473C159.293 46.1152 159.439 45.7539 159.654 45.3633C160.006 44.6992 160.357 43.9766 160.709 43.1953C161.08 42.4141 161.5 41.5254 161.969 40.5293C162.438 39.5137 162.975 38.3613 163.58 37.0723C164.205 35.7637 164.938 34.2598 165.777 32.5605C165.504 32.3262 165.27 32.043 165.074 31.7109C164.898 31.3594 164.811 30.9297 164.811 30.4219C164.811 29.9531 164.908 29.5527 165.104 29.2207C165.299 28.8691 165.562 28.5859 165.895 28.3711C166.227 28.1562 166.607 28 167.037 27.9023C167.486 27.7852 167.955 27.7266 168.443 27.7266C168.951 27.7266 169.459 27.7754 169.967 27.873C170.475 27.9512 170.924 28.0781 171.314 28.2539C171.725 28.4297 172.057 28.6445 172.311 28.8984C172.564 29.1523 172.691 29.4453 172.691 29.7773C172.691 29.8359 172.672 29.9141 172.633 30.0117C172.594 30.1094 172.545 30.2168 172.486 30.334C172.447 30.4512 172.408 30.5586 172.369 30.6562C172.33 30.7539 172.311 30.832 172.311 30.8906C172.311 30.9297 172.32 30.9492 172.34 30.9492H172.369L172.428 30.9199Z" fill="white"/>
</svg>
